<svg xmlns="http://www.w3.org/2000/svg" xmlns:xlink="http://www.w3.org/1999/xlink" xmlns:fi="http://pattern.flaticon.com/" x="0" y="0" width="700" height="350" viewBox="0 0 700 350"><rect x="0px" y="0px" width="100%" height="100%" opacity="1" fill="#ffffff"/><defs><g transform="matrix(0.11716003715991974 0 0 0.11716003715991974 241 263)" id="L1_16"><path d="m124.25 131.751v62.182c0 4.142 3.358 7.5 7.5 7.5h62.125c4.142 0 7.5-3.358 7.5-7.5v-62.182c0-21.263-17.299-38.562-38.563-38.562-21.263 0-38.562 17.299-38.562 38.562zm15 0c0-12.992 10.57-23.562 23.563-23.562s23.562 10.57 23.562 23.562v54.682h-47.125z"/><path d="m504.619 465.82h-46.75c-2.452 0-4.804-1.178-6.28-3.14l-99.06-132.08c-2.484-3.313-7.187-3.985-10.5-1.5s-3.985 7.186-1.5 10.5l99.067 132.091c4.304 5.716 11.134 9.129 18.272 9.129h39.25v16.3h-39.25c-12.249 0-23.958-5.855-31.32-15.66l-167.764-223.693c-4.285-5.728-11.12-9.147-18.285-9.147h-8.06v-16.3h8.06c12.263 0 23.971 5.854 31.32 15.661l49.1 65.46c2.485 3.313 7.188 3.985 10.5 1.5 3.313-2.486 3.985-7.187 1.5-10.5l-49.098-65.457c-10.166-13.564-26.36-21.663-43.322-21.663h-8.06v-140.131h23.59c6.268-1.123 8.505-4.74 6.71-10.849l-31.039-62.19c-1.27-2.544-3.868-4.151-6.711-4.151h-124.3c-2.842 0-5.44 1.606-6.709 4.149l-31.061 62.19c-1.795 6.11.441 9.727 6.71 10.851h23.56v140.248h-47.126v-23.562c0-4.142-3.358-7.5-7.5-7.5h-31.062c-4.142 0-7.5 3.358-7.5 7.5v310.623c0 4.142 3.358 7.5 7.5 7.5h31.063c4.142 0 7.5-3.358 7.5-7.5v-54.625h47.125v54.626c0 4.142 3.358 7.5 7.5 7.5h31.06c4.142 0 7.5-3.358 7.5-7.5v-123.44c0-4.142-3.358-7.5-7.5-7.5s-7.5 3.358-7.5 7.5v84.875h-16.06v-202.435h16.06v84.87c0 4.142 3.358 7.5 7.5 7.5s7.5-3.358 7.5-7.5v-84.87h47.125v240.998c0 4.142 3.358 7.5 7.5 7.5h31.063c4.142 0 7.5-3.358 7.5-7.5v-240.878h8.062c2.461 0 4.807 1.171 6.28 3.14l167.773 223.704c10.183 13.561 26.376 21.657 43.317 21.657h46.75c4.143 0 7.5-3.358 7.5-7.5v-31.3c0-4.143-3.357-7.501-7.5-7.501zm-358.15-403.63h-64.711l23.569-47.19h115.023l23.553 47.19h-64.744c-4.142 0-7.5 3.358-7.5 7.5s3.358 7.5 7.5 7.5h38.28v140.244h-109.25v-140.244h38.28c4.142 0 7.5-3.358 7.5-7.5s-3.358-7.5-7.5-7.5zm-100.406 232.372h47.125v16.063h-47.125zm0-15v-16.062h47.125v16.063h-47.125zm0 77.125h47.125v16.063h-47.125zm0-15v-16.062h47.125v16.062zm47.125-109.249v16.062h-47.125v-16.062zm-62.125-31.063v264.56h-16.062v-264.56zm-16.062 295.623v-16.063h16.063v16.063zm78.187-62.124h-47.125v-16.063h47.125zm-47.125-31.063v-16.062h47.125v16.062zm78.186 77.125v16.064h-16.06v-16.064zm-16.06-232.436v-16.066h109.25v16.066zm109.248 15v202.436h-16.063v-202.436zm-16.062 233.498v-16.063h16.063v16.063z"/></g><g transform="matrix(0.9375 0 0 0.9375 291 76.00000027849717)" id="L1_17"><path d="M13.36,43h0a20.83,20.83,0,0,0,20.75,3.77,1,1,0,0,0,.64-.72,1,1,0,0,0-.27-.93l-6.9-6.89A1,1,0,0,0,26.45,38,18.78,18.78,0,0,1,18,40a19,19,0,0,1-2.87-.25,18.82,18.82,0,0,1,4.74-10.46l3.79,3.78a1,1,0,0,0,.7.29,1,1,0,0,0,.71-.29,6.94,6.94,0,0,0,.4-9.41,1,1,0,1,0-1.53,1.28,5,5,0,0,1,.35,5.94l-3-3c.32-.29.64-.56,1-.83A1,1,0,1,0,21,25.48a22,22,0,0,0-1.83,1.64l-.05,0s0,0,0,.06a20.84,20.84,0,0,0-6,12.72A19,19,0,0,1,24.53,8.16L25,8.11a14.93,14.93,0,0,0,5.32,11.34,1,1,0,0,0,.65.24,1,1,0,0,0,.76-.36,1,1,0,0,0-.12-1.41A12.94,12.94,0,0,1,27,8a19,19,0,0,1,16.13,9l-6.56,3.45A5.43,5.43,0,0,1,34,21h0a20.92,20.92,0,0,0-5.79.81,1,1,0,0,0,.55,1.92A19.29,19.29,0,0,1,34,23h0a7.4,7.4,0,0,0,3.47-.82L45,18.24a1,1,0,0,0,.41-1.36A20.92,20.92,0,0,0,26.12,6h0c-.52,0-1.05.06-1.58.12L22.24,2.62a1,1,0,0,0-1-.45A21,21,0,0,0,8.83,37.49,21,21,0,0,0,13.36,43ZM26.69,40.1l5.23,5.24a19,19,0,0,1-16.83-3.56A20.27,20.27,0,0,0,26.69,40.1ZM5.15,20.57A19.13,19.13,0,0,1,20.91,4.24l1.47,2.27A21.16,21.16,0,0,0,6.17,24.32a20.72,20.72,0,0,0,0,5.16A19,19,0,0,1,5.15,20.57Z"/><circle cx="33" cy="12" r="1"/><path d="M51,18.86V34a6,6,0,0,1-12,0V31l2.4,1.8a1,1,0,1,0,1.2-1.6l-4-3a1,1,0,0,0-1.05-.09A1,1,0,0,0,37,29v5a8,8,0,0,0,16,0V18.86a4,4,0,0,0,0-7.72V3a1,1,0,0,0-2,0v8.14a4,4,0,0,0,0,7.72ZM52,13a2,2,0,1,1-2,2A2,2,0,0,1,52,13Z"/><path d="M20.23,13.32a1,1,0,0,0-1.15.81,5,5,0,0,0,4.05,5.79l.18,0a1,1,0,0,0,.17-2A3,3,0,0,1,21,14.48,1,1,0,0,0,20.23,13.32Z"/><path d="M18.5,22a1,1,0,0,0-1-1A2.5,2.5,0,0,1,15,18.5a1,1,0,0,0-2,0A4.51,4.51,0,0,0,17.5,23,1,1,0,0,0,18.5,22Z"/><path d="M12,25.5a1,1,0,0,0-2,0A4.51,4.51,0,0,0,14.5,30a1,1,0,0,0,0-2A2.5,2.5,0,0,1,12,25.5Z"/><path d="M5.5,53.54a4.55,4.55,0,0,0,3.21-1.33,2.53,2.53,0,0,1,3.58,0,4.54,4.54,0,0,0,6.42,0,2.53,2.53,0,0,1,3.58,0,4.54,4.54,0,0,0,6.42,0,2.53,2.53,0,0,1,3.58,0,4.54,4.54,0,0,0,6.42,0,2.53,2.53,0,0,1,3.58,0,4.54,4.54,0,0,0,6.42,0,2.53,2.53,0,0,1,3.58,0,4.54,4.54,0,0,0,6.42,0,2.5,2.5,0,0,1,2.15-.71,1,1,0,1,0,.28-2,4.52,4.52,0,0,0-3.85,1.27,2.53,2.53,0,0,1-3.58,0,4.54,4.54,0,0,0-6.42,0,2.53,2.53,0,0,1-3.58,0,4.54,4.54,0,0,0-6.42,0,2.53,2.53,0,0,1-3.58,0,4.54,4.54,0,0,0-6.42,0,2.53,2.53,0,0,1-3.58,0,4.54,4.54,0,0,0-6.42,0,2.53,2.53,0,0,1-3.58,0,4.54,4.54,0,0,0-6.42,0,2.53,2.53,0,0,1-3.58,0,1,1,0,0,0-1.42,1.42A4.55,4.55,0,0,0,5.5,53.54Z"/><path d="M61.71,55.79a4.54,4.54,0,0,0-6.42,0,2.53,2.53,0,0,1-3.58,0,4.54,4.54,0,0,0-6.42,0,2.53,2.53,0,0,1-3.58,0,4.54,4.54,0,0,0-6.42,0,2.53,2.53,0,0,1-3.58,0,4.54,4.54,0,0,0-6.42,0,2.53,2.53,0,0,1-3.58,0,4.54,4.54,0,0,0-6.42,0,2.53,2.53,0,0,1-3.58,0,4.54,4.54,0,0,0-6.42,0,2.53,2.53,0,0,1-2.15.71,1,1,0,0,0-.28,2,4.48,4.48,0,0,0,3.85-1.27,2.53,2.53,0,0,1,3.58,0,4.54,4.54,0,0,0,6.42,0,2.53,2.53,0,0,1,3.58,0,4.54,4.54,0,0,0,6.42,0,2.53,2.53,0,0,1,3.58,0,4.54,4.54,0,0,0,6.42,0,2.53,2.53,0,0,1,3.58,0,4.54,4.54,0,0,0,6.42,0,2.53,2.53,0,0,1,3.58,0,4.54,4.54,0,0,0,6.42,0,2.53,2.53,0,0,1,3.58,0,1,1,0,0,0,1.42-1.42Z"/></g><path d="m374.706 472.577-20.33-18.551-14.888-114.934c-1.281-9.835-6.115-18.973-13.421-25.593 1.37-3.484 1.752-7.333.997-11.109-1.274-6.372-5.599-11.712-11.569-14.285l-54.11-23.32c-.004-.002-.009-.004-.013-.005l-.054-.023c-.03-.013-.057-.029-.086-.041l-73.925-31.013 22.737-59.016 26.367-1.005c4.139-.158 7.367-3.641 7.209-7.78s-3.629-7.351-7.78-7.209l-35.219 1.343.042-24.141 44.031-2.332c4.136-.219 7.312-3.75 7.093-7.886-.218-4.136-3.755-7.323-7.886-7.093l-9.824.52c.962-1.288 1.962-2.548 3.014-3.76 4.954-5.697 11.84-9.168 19.26-9.809 9.885 12.793 28.121 20.056 44.49 17.09 5.347 4.196 7.352 11.517 4.62 17.992l-43.392 102.858c-1.61 3.816.179 8.215 3.995 9.825 3.732 1.574 8.201-.13 9.825-3.995l23.994-56.877 20.004 13.251c4.545 3.011 9.784 4.587 15.212 4.587.95 0 69.461-2.555 70.5-2.594 7.227-.268 14.071-3.572 18.778-9.066 4.71-5.498 6.926-12.775 6.081-19.966-1.54-13.097-12.641-22.973-25.821-22.973h-65.12l-18.991-12.783c2.536-8.924.815-18.3-4.298-25.612.506-.28 1.017-.545 1.515-.845 10.856-6.541 18.518-16.919 21.574-29.223l6.424-25.859c6.31-25.402-9.211-51.199-34.598-57.506-12.298-3.056-25.052-1.135-35.909 5.406-10.856 6.541-18.518 16.919-21.575 29.224l-6.423 25.859c-2.332 9.386-1.675 18.824 1.352 27.315-14.864 3.188-25.977 15.327-32.889 28.432l-49.217 2.606c-9.138.484-17.809 4.234-24.417 10.561l-43.613 41.757c-5.477 5.245-8.54 12.308-8.624 19.888-.083 7.58 2.822 14.708 8.183 20.073 5.436 5.439 12.596 8.162 19.76 8.161 7.102 0 14.207-2.677 19.631-8.036l39.617-39.141 16.712-.637-22.981 59.649c-.001.002-.002.004-.003.007l-32.915 80.666c-3 7.353-1.325 15.748 4.267 21.388l30.272 30.535-108.19 42.924v-27.671l63.81-26.521c3.825-1.59 5.637-5.979 4.047-9.805-1.59-3.824-5.979-5.636-9.804-4.047l-67.108 27.893h-33.845c-11.735 0-21.281 9.551-21.281 21.29v41.11c0 13.272 10.793 24.07 24.059 24.07 6.75 0 13.231-2.862 17.779-7.854l19.22-21.089 124.219-49.284c3.236 1.413 6.899 1.93 10.447 1.467 6.176-.807 11.496-4.365 14.597-9.764l15.567-27.101 30.037 21.015c3.457 2.418 7.423 3.602 11.363 3.602 3.642 0 7.251-1.033 10.421-3.016l18.419 93.651v28.872c0 14.963 12.167 27.136 27.123 27.136h35.242c13.266 0 24.059-10.798 24.059-24.07-.001-6.752-2.86-13.233-7.846-17.783zm-31.307-301.91h61.238c5.576 0 10.272 4.181 10.924 9.724.363 3.091-.551 6.094-2.575 8.456-2.021 2.358-4.841 3.72-7.942 3.835l-66.449 2.462zm-14.49-4.059-4.699 23.941-18.394-12.184 8.97-21.263zm-60.691-124.523c2.091-8.417 7.333-15.518 14.758-19.992 7.448-4.488 16.197-5.772 24.552-3.697 18.11 4.499 29.304 24.406 22.89 42.416l-23.773-14.287c-7.269-4.368-16.649-2.951-22.3 3.368l-5.171 5.78c-.886.991-2.388 1.181-3.496.447l-9.396-6.237zm-6.424 25.859.647-2.606 4.939 3.279c7.276 4.83 17.152 3.565 22.972-2.943l5.171-5.78c.86-.961 2.288-1.177 3.395-.512l27.717 16.657-1.875 7.549c-4.164 17.071-22.231 28.006-39.31 23.688-17.36-4.313-27.971-21.957-23.656-39.332zm-76.173 92.661-12.086.461c-1.874.071-3.652.842-4.985 2.159l-41.69 41.189c-5.044 4.982-13.226 4.958-18.238-.058-2.485-2.487-3.833-5.791-3.794-9.304s1.459-6.787 3.999-9.218l43.613-41.757c4.015-3.843 9.284-6.122 14.837-6.416l18.387-.974zm-136.44 258.011-18.43 20.222c-1.712 1.879-4.151 2.957-6.692 2.957-4.995 0-9.059-4.069-9.059-9.07v-41.11c0-3.469 2.817-6.29 6.281-6.29h27.9zm148.132-55.815c-1.026 1.787-2.653 2.246-3.532 2.36-.878.119-2.571.089-4.024-1.377l-37.007-37.329c-1.35-1.361-1.754-3.388-1.03-5.16l30.052-73.65 65.825 27.615zm79.837-18.145c-.021.021-.04.042-.061.063l-6.375 6.585c-1.646 1.7-4.25 1.949-6.191.592l-31.135-21.783 28.113-48.943 48.057 20.711c2.081.896 2.649 2.712 2.796 3.45s.321 2.629-1.251 4.253l-.321.332c-.043.042-.084.087-.126.13zm13.407 7.717 26.191-27.054c4.27 4.175 7.089 9.74 7.866 15.706l14.144 109.187h-28.958zm67.935 147.057h-35.242c-6.685 0-12.123-5.444-12.123-12.136v-22.084h33.253l20.215 18.446c1.879 1.715 2.957 4.158 2.957 6.703-.001 5.002-4.065 9.071-9.06 9.071zm92.496-116.725c-36.316 0-65.862 29.546-65.862 65.863 0 36.316 29.546 65.862 65.862 65.862 36.317 0 65.863-29.546 65.863-65.862 0-36.317-29.546-65.863-65.863-65.863zm0 116.725c-28.045 0-50.862-22.816-50.862-50.862s22.817-50.863 50.862-50.863c28.046 0 50.863 22.817 50.863 50.863s-22.817 50.862-50.863 50.862z" transform="matrix(0.11608761548995972 0 0 0.11608761548995972 133 32.00000187055241)" id="L1_19"/><g transform="matrix(1.0174054611619554e-17 -0.1661549210548401 0.1661549210548401 1.0174054611619554e-17 72.44307106494898 264.50550157660814)" id="L1_23"><path d="M510.795,117.381c-0.217-21.17-3.062-72.656-24.759-93.482C463.203,1.983,398.476-5.932,328.63,4.654    c-49.639,7.522-143.986,31.214-218.14,105.369C36.513,184,13.101,277.917,5.73,327.315    c-10.213,68.438-2.785,133.251,18.063,157.617c18.129,21.187,60.923,25.908,84.817,26.836c3.963,0.154,8.026,0.232,12.198,0.232    c79.905,0,196.335-28.917,279.54-112.121C483.065,317.162,511.637,199.714,510.795,117.381z M109.774,481.786    c-35.144-1.365-57.057-9.2-63.183-16.36c-4.653-5.439-10.68-20.378-13.64-45.997c-2.116-18.317-3.407-48.397,2.455-87.685    c0.464-3.108,0.999-6.413,1.609-9.882l153.139,153.139C162.513,480.393,135.058,482.769,109.774,481.786z M379.132,378.663    c-35.932,35.932-83.078,64.427-136.341,82.405c-6.092,2.056-12.241,3.955-18.42,5.72L44.717,287.134    c12.458-46.444,37.34-106.245,86.99-155.895c46.435-46.434,101.816-71.364,146.937-84.738l185.412,185.412    C448.665,283.423,421.684,336.11,379.132,378.663z M472.609,198.033L312.573,37.998c7.493-1.542,14.397-2.745,20.554-3.679    c20.433-3.096,39.111-4.381,55.626-4.381c40.837,0,68.432,7.857,76.505,15.607c7.197,6.908,15.127,32.431,15.534,72.142    C481.041,141.898,478.552,169.373,472.609,198.033z" fill="#046380"/><path d="M358.094,197.605l-11.947-11.951l8.39-8.39c5.859-5.859,5.859-15.357,0-21.216c-5.858-5.859-15.357-5.859-21.216,0    l-8.39,8.39l-11.953-11.953c-5.858-5.859-15.357-5.859-21.216,0c-5.859,5.859-5.859,15.357,0,21.216l11.953,11.953l-16.418,16.418    l-11.952-11.952c-5.858-5.859-15.357-5.859-21.216,0c-5.859,5.859-5.859,15.357,0,21.216l11.952,11.952l-17.081,17.081    l-12.306-12.306c-5.858-5.859-15.357-5.859-21.216,0c-5.859,5.859-5.859,15.357,0,21.216l12.306,12.306l-16.418,16.418    l-12.307-12.307c-5.858-5.859-15.357-5.859-21.216,0c-5.859,5.859-5.859,15.357,0,21.216l12.307,12.307l-15.711,15.711    l-11.952-11.952c-5.858-5.859-15.357-5.859-21.216,0c-5.859,5.859-5.859,15.357,0,21.216l11.952,11.952l-3.547,3.548    c-5.859,5.859-5.859,15.357,0,21.216c2.929,2.929,6.769,4.395,10.608,4.395s7.679-1.464,10.608-4.395l3.547-3.547l11.952,11.952    c2.929,2.929,6.769,4.395,10.608,4.395s7.679-1.464,10.608-4.395c5.859-5.859,5.859-15.357,0-21.216l-11.952-11.952l15.711-15.711    l11.599,11.599c2.929,2.929,6.769,4.395,10.608,4.395s7.679-1.464,10.608-4.395c5.859-5.859,5.859-15.357,0-21.216l-11.599-11.599    l16.418-16.418l11.598,11.598c2.929,2.929,6.769,4.395,10.608,4.395s7.679-1.464,10.608-4.395c5.859-5.859,5.859-15.357,0-21.216    l-11.598-11.598l17.081-17.081l11.952,11.952c2.929,2.929,6.769,4.395,10.608,4.395s7.679-1.464,10.608-4.395    c5.859-5.859,5.859-15.357,0-21.216l-11.952-11.952l16.418-16.419l11.953,11.952c2.929,2.929,6.769,4.395,10.608,4.395    c3.839,0,7.679-1.464,10.607-4.395C363.952,212.962,363.952,203.464,358.094,197.605z" fill="#046380"/></g></defs><g fi:class="KUsePattern" opacity="0.48"><pattern id="pattern_L1_16" width="350" height="350" patternUnits="userSpaceOnUse"><use xlink:href="#L1_16" x="-350" y="-350"/><use xlink:href="#L1_16" x="0" y="-350"/><use xlink:href="#L1_16" x="350" y="-350"/><use xlink:href="#L1_16" x="-350" y="0"/><use xlink:href="#L1_16" x="0" y="0"/><use xlink:href="#L1_16" x="350" y="0"/><use xlink:href="#L1_16" x="-350" y="350"/><use xlink:href="#L1_16" x="0" y="350"/><use xlink:href="#L1_16" x="350" y="350"/></pattern><rect x="0" y="0" width="100%" height="100%" fill="url(#pattern_L1_16)"/></g><g fi:class="KUsePattern" opacity="0.3"><pattern id="pattern_L1_17" width="350" height="350" patternUnits="userSpaceOnUse"><use xlink:href="#L1_17" x="-350" y="-350"/><use xlink:href="#L1_17" x="0" y="-350"/><use xlink:href="#L1_17" x="350" y="-350"/><use xlink:href="#L1_17" x="-350" y="0"/><use xlink:href="#L1_17" x="0" y="0"/><use xlink:href="#L1_17" x="350" y="0"/><use xlink:href="#L1_17" x="-350" y="350"/><use xlink:href="#L1_17" x="0" y="350"/><use xlink:href="#L1_17" x="350" y="350"/></pattern><rect x="0" y="0" width="100%" height="100%" fill="url(#pattern_L1_17)"/></g><g fi:class="KUsePattern" opacity="0.3"><pattern id="pattern_L1_19" width="350" height="350" patternUnits="userSpaceOnUse"><use xlink:href="#L1_19" x="-350" y="-350"/><use xlink:href="#L1_19" x="0" y="-350"/><use xlink:href="#L1_19" x="350" y="-350"/><use xlink:href="#L1_19" x="-350" y="0"/><use xlink:href="#L1_19" x="0" y="0"/><use xlink:href="#L1_19" x="350" y="0"/><use xlink:href="#L1_19" x="-350" y="350"/><use xlink:href="#L1_19" x="0" y="350"/><use xlink:href="#L1_19" x="350" y="350"/></pattern><rect x="0" y="0" width="100%" height="100%" fill="url(#pattern_L1_19)"/></g><g fi:class="KUsePattern" opacity="0.23"><pattern id="pattern_L1_23" width="350" height="350" patternUnits="userSpaceOnUse"><use xlink:href="#L1_23" x="-350" y="-350"/><use xlink:href="#L1_23" x="0" y="-350"/><use xlink:href="#L1_23" x="350" y="-350"/><use xlink:href="#L1_23" x="-350" y="0"/><use xlink:href="#L1_23" x="0" y="0"/><use xlink:href="#L1_23" x="350" y="0"/><use xlink:href="#L1_23" x="-350" y="350"/><use xlink:href="#L1_23" x="0" y="350"/><use xlink:href="#L1_23" x="350" y="350"/></pattern><rect x="0" y="0" width="100%" height="100%" fill="url(#pattern_L1_23)"/></g></svg>